<svg width="24" height="25" viewBox="0 0 24 25" fill="none" xmlns="http://www.w3.org/2000/svg">
<g id="ant-design:home-filled">
<path id="Vector" d="M22.1843 11.8444L12.5302 2.19731C12.4607 2.12766 12.3781 2.07241 12.2872 2.03471C12.1963 1.99701 12.0989 1.9776 12.0005 1.9776C11.9021 1.9776 11.8046 1.99701 11.7137 2.03471C11.6228 2.07241 11.5403 2.12766 11.4708 2.19731L1.81661 11.8444C1.53536 12.1257 1.37598 12.5077 1.37598 12.9062C1.37598 13.7336 2.04865 14.4062 2.87602 14.4062H3.89323V21.29C3.89323 21.7049 4.22839 22.04 4.64325 22.04H10.5004V16.7899H13.1255V22.04H19.3577C19.7726 22.04 20.1077 21.7049 20.1077 21.29V14.4062H21.1249C21.5234 14.4062 21.9054 14.2492 22.1867 13.9656C22.7703 13.3796 22.7703 12.4304 22.1843 11.8444Z" fill="#2659C3"/>
</g>
</svg>
