<svg width="22" height="25" viewBox="0 0 22 25" fill="none" xmlns="http://www.w3.org/2000/svg">
<g clip-path="url(#clip0_1_4218)">
<path d="M17.7518 6.00834H15.504L15.5046 2.25824C15.5046 1.01602 14.4968 0.00817871 13.2545 0.00817871H8.75443C7.51221 0.00817871 6.50437 1.01602 6.50437 2.25824L6.50146 6.00834H4.2514C3.00918 6.00834 2.00134 7.01617 2.00134 8.25839V20.2587C2.00134 21.5009 3.00918 22.5088 4.2514 22.5088H5.00376L5.00142 23.2588C5.00142 23.676 5.33424 24.0088 5.75144 24.0088H7.25148C7.66868 24.0088 8.0015 23.676 8.0015 23.2588L8.00619 22.5088H14.0063L14.0017 23.2588C14.0017 23.6748 14.3356 24.0088 14.7517 24.0088H16.2517C16.6677 24.0088 17.0017 23.6748 17.0017 23.2588L17.0041 22.5088H17.7518C18.994 22.5088 20.0018 21.5009 20.0018 20.2587V8.25839C20.0018 7.01617 18.994 6.00834 17.7518 6.00834ZM8.75621 2.25824H13.2563V6.00834H8.75621V2.25824ZM16.2517 18.0086H5.75144C5.33893 18.0086 5.00142 17.6711 5.00142 17.2586C5.00142 16.8461 5.33893 16.5086 5.75144 16.5086H16.2517C16.6643 16.5086 17.0017 16.8461 17.0017 17.2586C17.0017 17.6711 16.6642 18.0086 16.2517 18.0086ZM16.2517 12.0085H5.75144C5.33893 12.0085 5.00142 11.671 5.00142 11.2585C5.00142 10.846 5.33893 10.5085 5.75144 10.5085H16.2517C16.6642 10.5085 17.0017 10.846 17.0017 11.2585C17.0017 11.671 16.6642 12.0085 16.2517 12.0085Z" fill="black"/>
</g>
<defs>
<clipPath id="clip0_1_4218">
<rect width="21.0005" height="24.0006" fill="white" transform="translate(0.501221 0.00817871)"/>
</clipPath>
</defs>
</svg>
