<svg width="25" height="25" viewBox="0 0 25 25" fill="none" xmlns="http://www.w3.org/2000/svg">
<g id="ri:hotel-fill">
<path id="Vector" d="M17.0027 19.0089H19.0028V11.0086H13.0025V19.0089H15.0026V13.0087H17.0027V19.0089ZM3.00212 19.0089V4.00828C3.00212 3.74305 3.10748 3.48869 3.29502 3.30115C3.48257 3.1136 3.73693 3.00824 4.00216 3.00824H18.0028C18.268 3.00824 18.5223 3.1136 18.7099 3.30115C18.8974 3.48869 19.0028 3.74305 19.0028 4.00828V9.00849H21.0029V19.0089H22.0029V21.009H2.00208V19.0089H3.00212ZM7.00229 11.0086V13.0087H9.00237V11.0086H7.00229ZM7.00229 15.0087V17.0088H9.00237V15.0087H7.00229ZM7.00229 7.00841V9.00849H9.00237V7.00841H7.00229Z" fill="black"/>
</g>
</svg>
